<svg width="48" height="48" viewBox="0 0 48 48" fill="none" xmlns="http://www.w3.org/2000/svg">
<path d="M38.458 12.024C36.652 10.564 34.428 9.532 32.714 8.88C32.1 8.646 31.408 8.728 30.868 9.102C30.324 9.474 30 10.09 30 10.748C30 11.44 29.44 12 28.748 12C25.602 12 22.396 12 19.25 12C18.56 12 18 11.44 18 10.75C18 10.092 17.676 9.474 17.134 9.102C16.592 8.728 15.9 8.646 15.286 8.882C13.566 9.54 11.33 10.582 9.498 12.062C7.662 13.764 4 23.722 4 32.33C4 32.482 4.038 32.63 4.114 32.762C6.644 37.228 13.542 38.396 15.112 38.446C15.122 38.448 15.13 38.448 15.14 38.448C15.418 38.448 15.712 38.336 15.842 38.088L17.408 35.118C16.116 34.79 14.782 34.4 13.328 33.884C12.286 33.514 11.744 32.37 12.114 31.33C12.484 30.29 13.63 29.748 14.668 30.116C21.72 32.624 25.916 32.622 33.358 30.106C34.408 29.756 35.542 30.314 35.894 31.36C36.248 32.406 35.686 33.542 34.64 33.896C33.184 34.388 31.856 34.764 30.57 35.084L32.156 38.09C32.286 38.338 32.582 38.45 32.858 38.45C32.868 38.45 32.876 38.45 32.886 38.448C34.458 38.398 41.356 37.228 43.884 32.762C43.962 32.63 44 32.482 44 32.328C44 23.722 40.338 13.764 38.458 12.024ZM18.08 27.976C16.422 27.976 15.08 26.19 15.08 23.984C15.08 21.78 16.422 19.992 18.08 19.992C19.744 19.772 21.044 21.778 21.08 23.984C21.08 26.19 19.738 27.976 18.08 27.976ZM29.992 28.024C28.334 28.024 26.992 26.234 26.992 24.024C26.992 21.814 28.334 20.024 29.992 20.024C31.65 20.024 32.992 21.814 32.992 24.024C32.992 26.234 31.65 28.024 29.992 28.024Z" fill="white"/>
</svg>
