<svg width="48" height="48" viewBox="0 0 48 48" fill="none" xmlns="http://www.w3.org/2000/svg">
<path d="M45.763 35.202C43.966 31.968 39.337 28.082 37.426 26.391C36.903 25.928 36.847 25.127 37.323 24.615C40.97 20.696 43.887 16.193 44.891 13.472C45.334 12.27 44.417 11 43.125 11H39.372C38.135 11 37.411 11.444 37.066 12.151C34.035 18.362 31.435 21.05 29.615 22.621C28.596 23.501 27.007 22.772 27.007 21.433C27.007 18.853 27.007 15.518 27.007 13.153C27.007 12.006 26.069 11.078 24.912 11.078L18.056 11C17.193 11 16.7 11.977 17.218 12.662L18.35 14.287C18.776 14.85 19.006 15.535 19.006 16.238L19 23.556C19 24.829 17.457 25.451 16.541 24.559C13.442 21.541 10.753 15.378 9.78501 12.431C9.50501 11.578 8.70601 11.002 7.80001 11L4.10301 10.991C2.71601 10.991 1.70201 12.306 2.07901 13.63C5.45701 25.487 12.388 36.767 24.74 37.99C25.957 38.11 27.007 37.13 27.007 35.917V32.071C27.007 30.968 27.872 30.02 28.984 29.992C29.023 29.991 29.062 29.991 29.101 29.991C32.368 29.991 36.027 34.746 37.307 36.97C37.675 37.61 38.363 38 39.107 38H44.08C45.531 38 46.462 36.461 45.763 35.202Z" fill="white"/>
</svg>
