<svg width="48" height="48" viewBox="0 0 48 48" fill="none" xmlns="http://www.w3.org/2000/svg">
<path d="M40.6055 5.96875C40.0273 5.99375 39.4969 6.16015 39.0312 6.34375C38.6008 6.51328 37.0555 7.16328 34.5938 8.19531C32.132 9.22734 28.8711 10.5961 25.3945 12.0586C18.4414 14.9828 10.6281 18.2719 6.625 19.957C6.4875 20.0141 5.92891 20.1852 5.3125 20.6562C4.69453 21.1281 4.00781 22.1531 4.00781 23.2734C4.00781 24.1773 4.45938 25.0977 5.00391 25.625C5.54844 26.1523 6.10078 26.3984 6.5625 26.582V26.5781C8.12266 27.2 12.7812 29.0641 13.8906 29.5078C14.2844 30.6867 15.9734 35.7344 16.375 37.0039H16.3711C16.6555 37.9023 16.932 38.4875 17.3164 38.9766C17.5086 39.2211 17.7383 39.4422 18.0195 39.6172C18.1273 39.6844 18.2469 39.7359 18.3672 39.7852C18.3836 39.7922 18.4016 39.7937 18.418 39.8008L18.3711 39.7891C18.4062 39.8031 18.4375 39.8234 18.4727 39.8359C18.5305 39.8555 18.5703 39.8555 18.6484 39.8711C18.9227 39.9555 19.1961 40.0117 19.4492 40.0117C20.5367 40.0117 21.2031 39.4219 21.2031 39.4219L21.2461 39.3906L25.9414 35.418L31.6914 40.7383C31.7961 40.8867 32.6195 42 34.5234 42C35.6594 42 36.5578 41.4375 37.1328 40.8477C37.7078 40.2578 38.0656 39.6539 38.2266 38.8359L38.2305 38.832C38.3586 38.1719 43.8633 10.5312 43.8633 10.5312L43.8516 10.5781C44.0227 9.81328 44.0734 9.07422 43.8711 8.32031C43.6688 7.5664 43.1227 6.83125 42.4648 6.44531C41.807 6.05937 41.1836 5.94375 40.6055 5.96875ZM39.8164 10.3477C39.5992 11.4398 34.668 36.2117 34.3633 37.7656L26.0586 30.082L20.4453 34.8281L22 28.75C22 28.75 32.725 17.8937 33.3711 17.2617C33.8914 16.7555 34 16.5781 34 16.4023C34 16.168 33.8797 16 33.6016 16C33.3516 16 33.0117 16.2398 32.832 16.3516C30.5445 17.7773 20.8023 23.3297 16.0117 26.0547C15.7234 25.9391 11.3945 24.2008 9.0625 23.2695C13.2109 21.5234 20.3227 18.5312 26.9453 15.7461C30.4211 14.2844 33.682 12.9141 36.1406 11.8828C38.2164 11.0125 39.2992 10.5617 39.8164 10.3477ZM34.3047 38.0508H34.3086C34.3086 38.0516 34.3047 38.0617 34.3047 38.0625C34.307 38.0492 34.3031 38.0609 34.3047 38.0508Z" fill="white"/>
</svg>
